HIERARCHY
ROOT Hips
{
  OFFSET 0.000 68.913 0.000
  CHANNELS 6 Xposition Yposition Zposition Zrotation Xrotation Yrotation
  JOINT LeftUpLeg
  {
    OFFSET 7.294 1.049 3.300
    CHANNELS 6 Xposition Yposition Zposition Zrotation Xrotation Yrotation
    JOINT LeftLeg
    {
      OFFSET 0.000 -37.108 0.000
      CHANNELS 6 Xposition Yposition Zposition Zrotation Xrotation Yrotation
      JOINT LeftFoot
      {
        OFFSET 0.000 -32.853 0.000
        CHANNELS 6 Xposition Yposition Zposition Zrotation Xrotation Yrotation
        End Site
        {
          OFFSET 0.000 0.000 9.991
        }
      }
    }
  }
  JOINT RightUpLeg
  {
    OFFSET -7.294 1.049 3.300
    CHANNELS 6 Xposition Yposition Zposition Zrotation Xrotation Yrotation
    JOINT RightLeg
    {
      OFFSET 0.000 -37.108 0.000
      CHANNELS 6 Xposition Yposition Zposition Zrotation Xrotation Yrotation
      JOINT RightFoot
      {
        OFFSET 0.000 -32.853 0.000
        CHANNELS 6 Xposition Yposition Zposition Zrotation Xrotation Yrotation
        End Site
        {
          OFFSET 0.000 0.000 9.991
        }
      }
    }
  }
  JOINT Spine
  {
    OFFSET 0.000 30.651 0.000
    CHANNELS 6 Xposition Yposition Zposition Zrotation Xrotation Yrotation
    JOINT Spine1
    {
      OFFSET 0.000 22.671 0.000
      CHANNELS 6 Xposition Yposition Zposition Zrotation Xrotation Yrotation
      JOINT LeftShoulder
      {
        OFFSET 1.642 -0.415 0.120
        CHANNELS 6 Xposition Yposition Zposition Zrotation Xrotation Yrotation
        JOINT LeftArm
        {
          OFFSET 15.330 0.000 0.000
          CHANNELS 6 Xposition Yposition Zposition Zrotation Xrotation Yrotation
          JOINT LeftForeArm
          {
            OFFSET 25.943 0.000 0.000
            CHANNELS 6 Xposition Yposition Zposition Zrotation Xrotation Yrotation
            JOINT LeftHand
            {
              OFFSET 22.866 0.000 0.000
              CHANNELS 6 Xposition Yposition Zposition Zrotation Xrotation Yrotation
              JOINT LeftHandThumb1
              {
                OFFSET 0.000 0.000 0.000
                CHANNELS 6 Xposition Yposition Zposition Zrotation Xrotation Yrotation
                JOINT LeftHandThumb2
                {
                  OFFSET 0.000 0.000 0.000
                  CHANNELS 6 Xposition Yposition Zposition Zrotation Xrotation Yrotation
                  JOINT LeftHandThumb3
                  {
                    OFFSET 0.000 0.000 0.000
                    CHANNELS 6 Xposition Yposition Zposition Zrotation Xrotation Yrotation
                    End Site
                    {
                      OFFSET 0.000 0.000 0.000
                    }
                  }
                }
              }
              JOINT LeftHandIndex1
              {
                OFFSET 0.000 0.000 0.000
                CHANNELS 6 Xposition Yposition Zposition Zrotation Xrotation Yrotation
                JOINT LeftHandIndex2
                {
                  OFFSET 0.000 0.000 0.000
                  CHANNELS 6 Xposition Yposition Zposition Zrotation Xrotation Yrotation
                  JOINT LeftHandIndex3
                  {
                    OFFSET 0.000 0.000 0.000
                    CHANNELS 6 Xposition Yposition Zposition Zrotation Xrotation Yrotation
                    End Site
                    {
                      OFFSET 0.000 0.000 0.000
                    }
                  }
                }
              }
              JOINT LeftHandMiddle1
              {
                OFFSET 0.000 0.000 0.000
                CHANNELS 6 Xposition Yposition Zposition Zrotation Xrotation Yrotation
                JOINT LeftHandMiddle2
                {
                  OFFSET 0.000 0.000 0.000
                  CHANNELS 6 Xposition Yposition Zposition Zrotation Xrotation Yrotation
                  JOINT LeftHandMiddle3
                  {
                    OFFSET 0.000 0.000 0.000
                    CHANNELS 6 Xposition Yposition Zposition Zrotation Xrotation Yrotation
                    End Site
                    {
                      OFFSET 0.000 0.000 0.000
                    }
                  }
                }
              }
              JOINT LeftHandRing1
              {
                OFFSET 0.000 0.000 0.000
                CHANNELS 6 Xposition Yposition Zposition Zrotation Xrotation Yrotation
                JOINT LeftHandRing2
                {
                  OFFSET 0.000 0.000 0.000
                  CHANNELS 6 Xposition Yposition Zposition Zrotation Xrotation Yrotation
                  JOINT LeftHandRing3
                  {
                    OFFSET 0.000 0.000 0.000
                    CHANNELS 6 Xposition Yposition Zposition Zrotation Xrotation Yrotation
                    End Site
                    {
                      OFFSET 0.000 0.000 0.000
                    }
                  }
                }
              }
              JOINT LeftHandPinky1
              {
                OFFSET 0.000 0.000 0.000
                CHANNELS 6 Xposition Yposition Zposition Zrotation Xrotation Yrotation
                JOINT LeftHandPinky2
                {
                  OFFSET 0.000 0.000 0.000
                  CHANNELS 6 Xposition Yposition Zposition Zrotation Xrotation Yrotation
                  JOINT LeftHandPinky3
                  {
                    OFFSET 0.000 0.000 0.000
                    CHANNELS 6 Xposition Yposition Zposition Zrotation Xrotation Yrotation
                    End Site
                    {
                      OFFSET 0.000 0.000 0.000
                    }
                  }
                }
              }
            }
          }
        }
      }
      JOINT RightShoulder
      {
        OFFSET -1.642 -0.415 0.120
        CHANNELS 6 Xposition Yposition Zposition Zrotation Xrotation Yrotation
        JOINT RightArm
        {
          OFFSET -15.330 0.000 0.000
          CHANNELS 6 Xposition Yposition Zposition Zrotation Xrotation Yrotation
          JOINT RightForeArm
          {
            OFFSET -25.943 0.000 0.000
            CHANNELS 6 Xposition Yposition Zposition Zrotation Xrotation Yrotation
            JOINT RightHand
            {
              OFFSET -22.866 0.000 0.000
              CHANNELS 6 Xposition Yposition Zposition Zrotation Xrotation Yrotation
              JOINT RightHandThumb1
              {
                OFFSET -0.000 0.000 0.000
                CHANNELS 6 Xposition Yposition Zposition Zrotation Xrotation Yrotation
                JOINT RightHandThumb2
                {
                  OFFSET -0.000 0.000 0.000
                  CHANNELS 6 Xposition Yposition Zposition Zrotation Xrotation Yrotation
                  JOINT RightHandThumb3
                  {
                    OFFSET -0.000 0.000 0.000
                    CHANNELS 6 Xposition Yposition Zposition Zrotation Xrotation Yrotation
                    End Site
                    {
                      OFFSET -0.000 0.000 0.000
                    }
                  }
                }
              }
              JOINT RightHandIndex1
              {
                OFFSET -0.000 0.000 0.000
                CHANNELS 6 Xposition Yposition Zposition Zrotation Xrotation Yrotation
                JOINT RightHandIndex2
                {
                  OFFSET -0.000 0.000 0.000
                  CHANNELS 6 Xposition Yposition Zposition Zrotation Xrotation Yrotation
                  JOINT RightHandIndex3
                  {
                    OFFSET -0.000 0.000 0.000
                    CHANNELS 6 Xposition Yposition Zposition Zrotation Xrotation Yrotation
                    End Site
                    {
                      OFFSET -0.000 0.000 0.000
                    }
                  }
                }
              }
              JOINT RightHandMiddle1
              {
                OFFSET -0.000 0.000 0.000
                CHANNELS 6 Xposition Yposition Zposition Zrotation Xrotation Yrotation
                JOINT RightHandMiddle2
                {
                  OFFSET -0.000 0.000 0.000
                  CHANNELS 6 Xposition Yposition Zposition Zrotation Xrotation Yrotation
                  JOINT RightHandMiddle3
                  {
                    OFFSET -0.000 0.000 0.000
                    CHANNELS 6 Xposition Yposition Zposition Zrotation Xrotation Yrotation
                    End Site
                    {
                      OFFSET -0.000 0.000 0.000
                    }
                  }
                }
              }
              JOINT RightHandRing1
              {
                OFFSET -0.000 0.000 0.000
                CHANNELS 6 Xposition Yposition Zposition Zrotation Xrotation Yrotation
                JOINT RightHandRing2
                {
                  OFFSET -0.000 0.000 0.000
                  CHANNELS 6 Xposition Yposition Zposition Zrotation Xrotation Yrotation
                  JOINT RightHandRing3
                  {
                    OFFSET -0.000 0.000 0.000
                    CHANNELS 6 Xposition Yposition Zposition Zrotation Xrotation Yrotation
                    End Site
                    {
                      OFFSET -0.000 0.000 0.000
                    }
                  }
                }
              }
              JOINT RightHandPinky1
              {
                OFFSET -0.000 0.000 0.000
                CHANNELS 6 Xposition Yposition Zposition Zrotation Xrotation Yrotation
                JOINT RightHandPinky2
                {
                  OFFSET -0.000 0.000 0.000
                  CHANNELS 6 Xposition Yposition Zposition Zrotation Xrotation Yrotation
                  JOINT RightHandPinky3
                  {
                    OFFSET -0.000 0.000 0.000
                    CHANNELS 6 Xposition Yposition Zposition Zrotation Xrotation Yrotation
                    End Site
                    {
                      OFFSET -0.000 0.000 0.000
                    }
                  }
                }
              }
            }
          }
        }
      }
      JOINT Neck
      {
        OFFSET 0.000 0.750 0.000
        CHANNELS 6 Xposition Yposition Zposition Zrotation Xrotation Yrotation
        JOINT Head
        {
          OFFSET 0.000 6.919 0.000
          CHANNELS 6 Xposition Yposition Zposition Zrotation Xrotation Yrotation
          End Site
          {
            OFFSET 0.000 15.918 0.000
          }
        }
      }
    }
  }
}
MOTION
Frames:	4
Frame Time:	0.033333
70.54087 72.08391 -234.70354 -0.82628 3.79920 -59.24763 8.44107 1.23642 2.97657 19.62773 3.24562 66.14217 0.00845 -30.28404 0.00000 6.28457 14.65954 -62.06641 -0.00002 -35.73087 -0.00004 7.02884 24.96253 -16.28554 -3.03277 0.42363 2.97657 -13.24981 -16.42547 19.90589 0.00156 -37.48229 0.00000 3.64457 -0.28829 -11.14237 -0.00007 -30.44710 0.00163 3.12592 30.99427 -6.05282 0.01205 35.07908 -0.00015 -1.40495 1.54815 -2.43603 0.00002 25.74565 -0.00367 -1.78740 1.80734 -2.36222 1.46227 -0.37687 0.15022 -14.30737 1.45411 -5.68246 13.65726 -0.00009 0.00014 -66.09852 -51.53587 -21.22791 22.30954 -0.00014 -0.00006 -29.18088 -11.17332 7.62194 27.70083 -0.00014 -0.00006 -3.25356 0.88440 9.57484 4.87700 -1.04399 3.60799 -38.84848 -18.17664 4.03030 2.66501 0.00001 -0.00002 0.00000 0.00000 5.00000 2.54300 -0.00001 0.00000 -0.00000 0.00000 60.00000 9.23200 -0.30100 2.14400 2.00049 0.00000 -0.00000 4.22500 -0.00000 -0.00002 2.00050 0.00000 -0.00000 2.65400 0.00001 0.00000 2.00049 0.00000 0.00000 8.92000 0.00001 0.00000 -80.00000 -0.00000 -0.00000 4.86300 0.00000 0.00000 -90.00000 -0.00000 0.00000 2.76501 0.00000 0.00000 -70.00000 -0.00000 0.00000 8.68900 -0.12600 -2.08700 -80.00000 -0.00000 -0.00000 4.53801 0.00001 -0.00002 -90.00000 -0.00000 0.00000 2.30500 -0.00000 0.00000 -70.00000 -0.00000 0.00000 8.39099 -0.81699 -3.75803 2.00049 0.00000 -0.00000 3.04399 -0.00001 0.00002 2.00050 0.00000 -0.00000 1.97499 0.00001 -0.00002 2.00049 0.00000 0.00000 -1.47877 -0.75458 0.15020 26.79611 2.62180 5.17522 -15.00257 0.00017 0.00000 57.05005 41.02593 6.93313 -29.00378 -0.00007 -0.00531 -9.98950 -1.66371 17.22725 -21.58257 -0.00008 -0.00017 -0.80927 -1.60911 1.14984 -4.87700 -1.04400 3.60799 37.43814 21.26626 8.20655 -2.66502 -0.00001 -0.00001 0.00000 0.00000 -4.99999 -2.54300 0.00000 -0.00002 0.00000 -0.00000 -60.00000 -9.23200 -0.30100 2.14398 80.00000 -0.00000 0.00001 -4.22499 -0.00001 -0.00005 90.00000 -0.00000 0.00001 -2.65402 0.00001 0.00000 70.00000 -0.00001 0.00001 -8.91999 0.00001 -0.00002 80.00000 -0.00000 0.00001 -4.86300 0.00000 0.00000 90.00000 -0.00000 0.00001 -2.76500 -0.00001 -0.00002 70.00000 -0.00001 0.00001 -8.68899 -0.12600 -2.08704 80.00000 -0.00000 0.00001 -4.53801 -0.00001 0.00002 90.00000 -0.00000 0.00001 -2.30501 -0.00001 -0.00002 70.00000 -0.00001 0.00001 -8.39101 -0.81700 -3.75800 80.00000 -0.00000 0.00001 -3.04400 0.00000 -0.00005 90.00000 -0.00000 0.00001 -1.97499 -0.00001 0.00000 70.00000 -0.00001 0.00001 0.00001 0.84304 0.00001 0.00000 -0.00000 -0.00001 -0.00002 7.58734 -0.00001 25.31296 16.93623 64.29051 
69.46307 72.56347 -234.89786 -1.00584 3.69308 -58.29756 8.56160 1.29886 3.00730 20.08572 4.23770 -1.72398 0.00845 -31.07818 0.00032 -11.46616 11.08920 -8.12399 -0.00002 -35.63800 -0.00004 0.03644 25.86124 -0.08325 -3.28525 0.31085 3.00695 -11.67646 -15.34857 -14.62969 0.00156 -37.98775 0.00047 1.52734 1.36629 9.98292 -0.00007 -29.98875 0.00163 -3.14432 29.53149 6.36030 0.01205 34.67953 -0.00015 -1.24329 1.68597 -1.79888 0.00002 25.46735 -0.00367 -1.66419 1.91576 -1.70511 1.48476 -0.36779 0.17677 -13.72537 1.61659 -6.59129 13.85921 -0.00009 0.00014 -48.59816 5.07467 -12.66827 22.17885 -0.00014 -0.00006 -22.27760 2.19935 -21.16919 27.75039 -0.00014 -0.00006 -8.63829 -0.32414 10.52199 4.87700 -1.04399 3.60799 -38.84848 -18.17664 4.03030 2.66501 0.00001 -0.00002 0.00000 0.00000 5.00000 2.54300 -0.00001 0.00000 -0.00000 0.00000 60.00000 9.23200 -0.30100 2.14400 2.00049 0.00000 -0.00000 4.22500 -0.00000 -0.00002 2.00050 0.00000 -0.00000 2.65400 0.00001 0.00000 2.00049 0.00000 0.00000 8.92000 0.00001 0.00000 -80.00000 -0.00000 -0.00000 4.86300 0.00000 0.00000 -90.00000 -0.00000 0.00000 2.76501 0.00000 0.00000 -70.00000 -0.00000 0.00000 8.68900 -0.12600 -2.08700 -80.00000 -0.00000 -0.00000 4.53801 0.00001 -0.00002 -90.00000 -0.00000 0.00000 2.30500 -0.00000 0.00000 -70.00000 -0.00000 0.00000 8.39099 -0.81699 -3.75803 2.00049 0.00000 -0.00000 3.04399 -0.00001 0.00002 2.00050 0.00000 -0.00000 1.97499 0.00001 -0.00002 2.00049 0.00000 0.00000 -1.55144 -0.81586 0.17674 27.43381 3.00350 5.76284 -15.85540 0.00017 -0.00050 59.99625 5.29241 5.29090 -28.83883 -0.00007 -0.00531 1.44695 0.10330 20.29059 -21.47492 -0.00008 -0.00017 2.20223 -0.76097 10.11434 -4.87700 -1.04400 3.60799 37.43814 21.26626 8.20655 -2.66502 -0.00001 -0.00001 0.00000 0.00000 -4.99999 -2.54300 0.00000 -0.00002 0.00000 -0.00000 -60.00000 -9.23200 -0.30100 2.14398 80.00000 -0.00000 0.00001 -4.22499 -0.00001 -0.00005 90.00000 -0.00000 0.00001 -2.65402 0.00001 0.00000 70.00000 -0.00001 0.00001 -8.91999 0.00001 -0.00002 80.00000 -0.00000 0.00001 -4.86300 0.00000 0.00000 90.00000 -0.00000 0.00001 -2.76500 -0.00001 -0.00002 70.00000 -0.00001 0.00001 -8.68899 -0.12600 -2.08704 80.00000 -0.00000 0.00001 -4.53801 -0.00001 0.00002 90.00000 -0.00000 0.00001 -2.30501 -0.00001 -0.00002 70.00000 -0.00001 0.00001 -8.39101 -0.81700 -3.75800 80.00000 -0.00000 0.00001 -3.04400 0.00000 -0.00005 90.00000 -0.00000 0.00001 -1.97499 -0.00001 0.00000 70.00000 -0.00001 0.00001 0.00001 0.83314 0.00001 0.00000 -0.00000 -0.00001 0.00032 7.49830 -0.00025 23.32495 16.09665 53.21681 
68.51427 72.91976 -235.14673 -1.34993 3.71702 -57.13933 8.60449 1.28966 3.03049 20.68734 4.13543 -7.24420 0.00845 -31.51708 -0.01245 -12.03821 9.97343 -4.87501 -0.00058 -35.71588 -0.00097 -0.61804 25.65203 1.44112 -3.41052 0.28358 3.04221 -10.30942 -13.81075 -17.60829 0.00156 -38.13949 -0.01490 0.41607 0.62734 11.35659 -0.00007 -29.82337 0.00163 -3.60971 29.35822 7.33312 0.01205 34.41856 -0.00509 -1.18438 1.74762 -2.00277 0.00002 25.30944 -0.00367 -1.61590 1.96776 -1.89866 1.48454 -0.36846 0.18203 -13.75650 1.67999 -6.83374 13.84775 -0.00338 0.00517 -47.51424 8.62222 -11.89506 22.15329 -0.00498 -0.00222 -21.12481 3.41585 -23.21873 27.67802 -0.00526 -0.00265 -9.72500 0.13830 12.11615 4.87700 -1.04399 3.60799 -38.84848 -18.17664 4.03030 2.66501 0.00001 -0.00002 0.00000 0.00000 5.00000 2.54300 -0.00001 0.00000 -0.00000 0.00000 60.00000 9.23200 -0.30100 2.14400 2.00049 0.00000 -0.00000 4.22500 -0.00000 -0.00002 2.00050 0.00000 -0.00000 2.65400 0.00001 0.00000 2.00049 0.00000 0.00000 8.92000 0.00001 0.00000 -80.00000 -0.00000 -0.00000 4.86300 0.00000 0.00000 -90.00000 -0.00000 0.00000 2.76501 0.00000 0.00000 -70.00000 -0.00000 0.00000 8.68900 -0.12600 -2.08700 -80.00000 -0.00000 -0.00000 4.53801 0.00001 -0.00002 -90.00000 -0.00000 0.00000 2.30500 -0.00000 0.00000 -70.00000 -0.00000 0.00000 8.39099 -0.81699 -3.75803 2.00049 0.00000 -0.00000 3.04399 -0.00001 0.00002 2.00050 0.00000 -0.00000 1.97499 0.00001 -0.00002 2.00049 0.00000 0.00000 -1.57004 -0.82354 0.18272 27.35891 3.06088 5.89445 -16.06134 0.00671 0.01556 60.60559 3.61800 5.15028 -28.83546 -0.00168 -0.00531 1.70130 0.21669 20.54053 -21.46926 -0.00404 -0.00589 2.65162 0.05455 9.90488 -4.87700 -1.04400 3.60799 37.43814 21.26626 8.20655 -2.66502 -0.00001 -0.00001 0.00000 0.00000 -4.99999 -2.54300 0.00000 -0.00002 0.00000 -0.00000 -60.00000 -9.23200 -0.30100 2.14398 80.00000 -0.00000 0.00001 -4.22499 -0.00001 -0.00005 90.00000 -0.00000 0.00001 -2.65402 0.00001 0.00000 70.00000 -0.00001 0.00001 -8.91999 0.00001 -0.00002 80.00000 -0.00000 0.00001 -4.86300 0.00000 0.00000 90.00000 -0.00000 0.00001 -2.76500 -0.00001 -0.00002 70.00000 -0.00001 0.00001 -8.68899 -0.12600 -2.08704 80.00000 -0.00000 0.00001 -4.53801 -0.00001 0.00002 90.00000 -0.00000 0.00001 -2.30501 -0.00001 -0.00002 70.00000 -0.00001 0.00001 -8.39101 -0.81700 -3.75800 80.00000 -0.00000 0.00001 -3.04400 0.00000 -0.00005 90.00000 -0.00000 0.00001 -1.97499 -0.00001 0.00000 70.00000 -0.00001 0.00001 0.00001 0.82851 0.00001 0.00000 -0.00000 -0.00001 -0.01099 7.45363 0.00808 22.85530 16.00886 49.91254 
67.08014 73.36052 -235.63321 -1.68544 3.78736 -55.82833 8.60901 1.29568 3.04327 20.82305 3.61815 -7.60806 0.00031 -31.74572 0.00090 -10.43936 11.72371 -5.61839 0.03041 -36.17765 -0.04237 -0.76859 25.39744 1.74949 -3.49450 0.24484 3.06256 -8.60085 -12.51089 -17.78436 -0.00633 -38.09467 -0.03265 -0.82939 -0.10000 10.82547 -0.00007 -29.88333 -0.00204 -3.71617 29.35417 7.55286 0.01205 34.04527 -0.01190 -1.16735 1.75991 -2.14643 -0.00336 25.04385 -0.00367 -1.59336 2.00212 -2.03401 1.51027 -0.35220 0.16316 -13.25537 1.58044 -6.58158 13.89328 -0.01324 0.00929 -47.84617 7.73552 -11.18771 22.15088 -0.01428 -0.00809 -20.90067 3.78206 -22.28988 27.12602 -0.04585 0.02030 -10.59282 0.60226 12.88920 4.87700 -1.04399 3.60799 -38.84848 -18.17664 4.03030 2.66501 0.00001 -0.00002 0.00000 0.00000 5.00000 2.54300 -0.00001 0.00000 -0.00000 0.00000 60.00000 9.23200 -0.30100 2.14400 2.00049 0.00000 -0.00000 4.22500 -0.00000 -0.00002 2.00050 0.00000 -0.00000 2.65400 0.00001 0.00000 2.00049 0.00000 0.00000 8.92000 0.00001 0.00000 -80.00000 -0.00000 -0.00000 4.86300 0.00000 0.00000 -90.00000 -0.00000 0.00000 2.76501 0.00000 0.00000 -70.00000 -0.00000 0.00000 8.68900 -0.12600 -2.08700 -80.00000 -0.00000 -0.00000 4.53801 0.00001 -0.00002 -90.00000 -0.00000 0.00000 2.30500 -0.00000 0.00000 -70.00000 -0.00000 0.00000 8.39099 -0.81699 -3.75803 2.00049 0.00000 -0.00000 3.04399 -0.00001 0.00002 2.00050 0.00000 -0.00000 1.97499 0.00001 -0.00002 2.00049 0.00000 0.00000 -1.56783 -0.81412 0.17009 27.09870 2.91154 5.68062 -16.10310 0.01814 0.04309 60.52065 5.94750 5.33300 -28.86804 -0.01935 0.00608 2.12027 0.99284 20.46344 -21.48893 -0.02140 -0.05307 2.84198 1.21984 8.89734 -4.87700 -1.04400 3.60799 37.43814 21.26626 8.20655 -2.66502 -0.00001 -0.00001 0.00000 0.00000 -4.99999 -2.54300 0.00000 -0.00002 0.00000 -0.00000 -60.00000 -9.23200 -0.30100 2.14398 80.00000 -0.00000 0.00001 -4.22499 -0.00001 -0.00005 90.00000 -0.00000 0.00001 -2.65402 0.00001 0.00000 70.00000 -0.00001 0.00001 -8.91999 0.00001 -0.00002 80.00000 -0.00000 0.00001 -4.86300 0.00000 0.00000 90.00000 -0.00000 0.00001 -2.76500 -0.00001 -0.00002 70.00000 -0.00001 0.00001 -8.68899 -0.12600 -2.08704 80.00000 -0.00000 0.00001 -4.53801 -0.00001 0.00002 90.00000 -0.00000 0.00001 -2.30501 -0.00001 -0.00002 70.00000 -0.00001 0.00001 -8.39101 -0.81700 -3.75800 80.00000 -0.00000 0.00001 -3.04400 0.00000 -0.00005 90.00000 -0.00000 0.00001 -1.97499 -0.00001 0.00000 70.00000 -0.00001 0.00001 0.00001 0.82008 0.00001 0.00000 -0.00000 -0.00001 -0.02230 7.37373 0.01573 21.68312 15.34893 46.48985 
